<svg width="855" height="781" viewBox="0 0 855 781" fill="none" xmlns="http://www.w3.org/2000/svg">
<path d="M598.17 390.5C598.17 496.978 577.919 592.79 545.704 661.533C513.04 731.234 470.299 769 427.17 769C384.041 769 341.299 731.234 308.635 661.533C276.42 592.79 256.17 496.978 256.17 390.5C256.17 284.022 276.42 188.21 308.635 119.467C341.299 49.766 384.041 12 427.17 12C470.299 12 513.04 49.766 545.704 119.467C577.919 188.21 598.17 284.022 598.17 390.5Z" stroke="#00B4D8" stroke-width="24"/>
<path d="M520.303 533.913C431.003 591.905 339.62 627.104 264.421 637.527C188.175 648.094 133.223 632.817 109.733 596.646C86.2432 560.475 94.6378 504.06 135.304 438.704C175.411 374.245 244.737 305.079 334.037 247.087C423.337 189.095 514.72 153.896 589.919 143.473C666.165 132.906 721.117 148.183 744.607 184.354C768.096 220.525 759.702 276.94 719.036 342.296C678.928 406.754 609.603 475.921 520.303 533.913Z" stroke="#00B4D8" stroke-width="24"/>
<path d="M331.548 532.265C243.273 472.724 175.166 402.358 136.189 337.21C96.6702 271.154 89.2614 214.601 113.379 178.845C137.496 143.09 192.707 128.774 268.757 140.671C343.762 152.404 434.517 189.193 522.792 248.734C611.066 308.276 679.174 378.642 718.15 443.79C757.669 509.846 765.078 566.399 740.96 602.154C716.843 637.91 661.633 652.226 585.583 640.329C510.577 628.596 419.822 591.807 331.548 532.265Z" stroke="#00B4D8" stroke-width="24"/>
<circle cx="429.17" cy="390" r="54" fill="#00B4D8"/>
</svg>
