<svg width="735" height="820" viewBox="0 0 735 820" fill="none" xmlns="http://www.w3.org/2000/svg">
<path d="M220.837 442.167C220.517 431.287 220.336 420.552 220.275 410.013C220.304 420.514 220.486 431.253 220.837 442.167Z" fill="#00B4D8"/>
<path d="M472.543 525.746C464.006 530.993 455.52 536.076 447.127 540.986C455.575 536.067 464.057 530.985 472.543 525.746Z" fill="#00B4D8"/>
<path d="M418.996 263.448C428.58 268.611 437.968 273.822 447.127 279.04C438.018 273.814 428.625 268.601 418.996 263.448Z" fill="#00B4D8"/>
<path d="M726.705 541.8C708.83 496.442 671.651 451.199 627.484 410.035C658.081 381.29 685.435 350.262 706.899 317.21C717.164 300.707 726.173 283.069 731.164 264.165C740.59 229.13 731.901 196.799 699.106 178.421C659.554 156.903 604.469 160.612 561.185 167.422C542.998 170.333 524.018 174.484 504.496 179.754C497.134 152.407 488.266 126.579 477.831 102.913C487.735 94.2614 491.962 80.3712 489.439 67.3715C487.438 57.0637 481.519 48.5871 469.508 42.4641C462.397 38.8396 451.803 37.64 442.058 41.1606C431.697 28.141 419.579 16.6214 404.963 8.58676C367.38 -11.4839 332.763 6.00507 308.043 36.5118C277.699 74.6706 257.107 129.491 243.541 188.322C203.348 176.197 162.8 168.022 123.445 165.96C104.02 165.322 84.2404 166.338 65.3739 171.468C30.3195 180.822 6.6655 204.512 7.14669 242.103C8.28798 287.115 39.0423 332.964 66.5816 367.045C78.5132 381.49 91.6177 395.798 105.713 409.867C83.4091 432.212 63.6759 455.235 47.3224 478.563C37.7574 474.801 23.6792 475.042 13.0276 483.501C3.68983 490.913 -1.10803 503.604 0.217152 515.515C1.30016 525.291 6.54306 534.434 14.1675 540.487C9.6091 553.799 6.84081 567.625 7.1372 581.754C8.54642 624.337 41.0014 645.572 79.781 651.727C127.999 658.927 185.771 649.35 243.504 631.683C253.099 672.553 266.293 711.756 284.186 746.87C293.345 764.011 304.115 780.633 317.991 794.407C343.62 820.088 375.963 828.728 408.277 809.516C446.689 786.021 471.018 736.463 486.762 695.572C493.351 678.322 499.26 659.758 504.467 640.16C523.72 645.342 542.683 649.543 561.177 652.656C605.084 659.59 663.039 663.491 702.429 639.699C738.601 617.186 740.764 578.462 726.705 541.8ZM619.773 175.426C657.589 174.098 710.493 179.677 723.69 221.857C734.998 260.193 708.246 307.458 686.534 338.213C668.733 362.872 648.122 386.268 625.636 408.319C595.417 380.355 562.037 354.309 529.386 331.436C525.832 284.406 518.951 238.365 508.552 195.606C546.965 184.441 584.559 177.249 619.773 175.426ZM509.592 502.079C506.329 542.169 500.758 581.845 492.515 619.359C479.815 615.267 467.232 610.862 454.783 606.275C431.774 597.648 407.445 587.327 382.49 575.541C406.076 563.916 427.939 552.11 447.127 540.986C426.724 552.692 404.917 564.329 382.164 575.387C329.721 550.597 274.524 519.34 222.981 483.733C221.975 469.675 221.274 455.784 220.836 442.168C221.236 455.768 221.855 469.597 222.736 483.563C189.65 460.692 158.075 436.03 129.708 410.134C139.602 401.182 149.708 392.487 159.905 383.999C178.881 368.385 199.983 352.477 222.668 336.759C220.943 362.997 220.235 387.834 220.275 410.013C220.339 386.491 221.164 361.787 222.964 336.554C270.654 303.532 325.322 271.358 381.931 244.524C394.607 250.682 406.986 257.019 418.996 263.448C407.018 256.995 394.734 250.617 382.2 244.397C418.55 227.179 455.696 212.166 492.305 200.548C495.112 213.592 497.589 226.692 499.84 239.766C503.874 264.006 507.1 290.235 509.371 317.74C487.51 303.127 466.355 290.096 447.126 279.041C467.465 290.858 488.446 303.924 509.4 318.099C514.153 375.917 514.682 439.356 509.614 501.804C497.315 510.117 484.925 518.1 472.542 525.746C484.826 518.197 497.216 510.305 509.592 502.079ZM360.113 585.773C323.238 602.598 284.359 617.562 245.271 628.644C235.329 589.244 228.853 548.086 224.99 507.736C267.642 536.976 313.474 563.445 360.113 585.773ZM224.996 312.254C228.862 271.91 235.343 230.76 245.289 191.371C284.449 202.48 323.398 217.484 360.33 234.348C314.037 256.531 267.992 282.938 224.996 312.254ZM529.428 332.008C562.418 355.518 594.799 381.691 623.927 409.983C594.775 438.365 562.54 464.501 529.226 488.205C533.164 437.01 533.321 383.915 529.428 332.008ZM289.177 75.9C328.588 6.48625 382.365 -17.1407 431.426 47.4675C422.987 54.9953 418.716 67.0132 419.975 78.3308C421.294 90.2393 428.782 101.211 439.232 106.798C447.089 111.002 456.598 111.97 465.156 109.64C474.992 133.755 482.533 158.832 488.612 184.258C447.34 196.488 404.004 213.453 360.871 234.091C323.865 216.691 285.057 201.007 245.881 189.036C256.289 148.448 270.407 109.792 289.177 75.9ZM44.2202 312.304C-10.6712 224.989 21.8263 171.164 123.327 171.62C162.075 172.317 202.625 179.429 242.993 190.721C233.876 230.891 228.006 272.843 224.522 312.576C185.57 339.169 149.138 368.149 117.306 398.534C88.4315 370.85 63.4053 341.889 44.2202 312.304ZM123.326 648.372C45.9967 648.93 -0.854562 616.322 24.8684 546.28C35.7576 549.859 48.4347 548.06 57.3441 540.722C67.7712 532.125 72.2663 517.872 69.6819 504.555C68.3053 497.462 65.0725 491.236 59.2761 486.047C76.5437 462.759 96.4047 441.403 117.538 421.393C149.328 451.669 185.581 480.683 224.494 507.395C227.931 548.076 233.748 589.454 242.952 629.299C202.598 640.579 162.062 647.68 123.326 648.372ZM450.537 742.308C402.365 833.503 339.502 832.273 289.147 744.142C270.377 710.237 256.261 671.563 245.856 630.958C285.207 618.767 324.477 602.872 360.632 586.022C403.266 606.402 446.564 623.317 488.716 635.721C479.172 674.636 466.589 710.853 450.537 742.308ZM640.778 644.452C636.332 644.721 631.223 644.694 626.789 644.712C586.609 643.832 547.033 635.766 508.469 624.303C518.514 582.446 525.489 536.434 529.183 488.761C562.754 465.412 595.741 439.646 625.696 411.703C655.642 441.012 682.06 472.566 702.026 505.767C744.777 578.595 735.106 639.724 640.778 644.452Z" fill="#00B4D8"/>
<path d="M395.905 355.53C380.024 347.435 353.779 346.555 334.345 361.989C318.692 374.413 310.649 395.687 312.87 415.654C315.082 435.616 327.634 454.009 345.151 463.373C365.003 473.994 391.149 472.31 408.633 457.909C426.112 443.497 433.647 419.605 429.314 397.283C425.961 380.003 416.038 365.794 395.905 355.53Z" fill="#00B4D8"/>
</svg>
